<svg width="18" height="18" viewBox="0 0 18 18" fill="none" xmlns="http://www.w3.org/2000/svg">
<rect width="18" height="18" rx="9" fill="#38A0AA"/>
<path fill-rule="evenodd" clip-rule="evenodd" d="M8.16759 4.14026C8.16759 3.81239 8.43338 3.5466 8.76125 3.5466C9.51488 3.5466 10.2611 3.69504 10.9574 3.98344C11.6536 4.27183 12.2863 4.69454 12.8192 5.22744C13.352 5.76033 13.7748 6.39297 14.0632 7.08922C14.3516 7.78548 14.5 8.53172 14.5 9.28534C14.5 9.61322 14.2342 9.87901 13.9063 9.87901C13.5785 9.87901 13.3127 9.61322 13.3127 9.28534C13.3127 8.68764 13.1949 8.0958 12.9662 7.54359C12.7375 6.99139 12.4022 6.48965 11.9796 6.06701C11.557 5.64437 11.0552 5.30911 10.503 5.08039C9.9508 4.85165 9.35896 4.73392 8.76125 4.73392C8.43338 4.73392 8.16759 4.46814 8.16759 4.14026ZM9.01762 14.1131C9.42797 14.3773 9.91638 14.4931 10.4017 14.4413C10.887 14.3894 11.3399 14.1731 11.6852 13.8282L11.9859 13.5274C12.1194 13.3925 12.1942 13.2104 12.1942 13.0208C12.1942 12.831 12.1194 12.6491 11.9859 12.5142L10.7195 11.2556C10.5859 11.1227 10.4052 11.0481 10.2168 11.0481C10.0284 11.0481 9.84769 11.1227 9.71419 11.2556C9.57933 11.389 9.39729 11.4639 9.2076 11.4639C9.01789 11.4639 8.83585 11.389 8.701 11.2556L6.68255 9.23715C6.54911 9.1023 6.47431 8.92026 6.47431 8.73056C6.47431 8.54087 6.54911 8.35883 6.68255 8.22397C6.81547 8.09046 6.8901 7.90973 6.8901 7.72133C6.8901 7.53294 6.81547 7.35221 6.68255 7.2187L5.46358 5.95222C5.3287 5.8188 5.14664 5.74398 4.95698 5.74398C4.76725 5.74398 4.58519 5.8188 4.45039 5.95222L4.1496 6.25301C3.79847 6.5934 3.5747 7.04392 3.51565 7.52938C3.4566 8.01484 3.56575 8.50588 3.82506 8.92053C5.20529 10.9697 6.96847 12.7329 9.01762 14.1131ZM8.51273 5.83615C8.18487 5.83615 7.91907 6.10195 7.91907 6.42981C7.91907 6.75768 8.18487 7.02348 8.51273 7.02348C9.19501 7.02348 9.84935 7.29451 10.3318 7.77696C10.8142 8.25941 11.0853 8.91374 11.0853 9.59602C11.0853 9.92389 11.3511 10.1897 11.6789 10.1897C12.0068 10.1897 12.2726 9.92389 12.2726 9.59602C12.2726 8.59884 11.8765 7.6425 11.1714 6.93739C10.4663 6.23228 9.50991 5.83615 8.51273 5.83615Z" fill="white"/>
</svg>
