<svg width="18" height="18" viewBox="0 0 18 18" fill="none" xmlns="http://www.w3.org/2000/svg">
<rect width="18" height="18" rx="9" fill="#809139"/>
<path fill-rule="evenodd" clip-rule="evenodd" d="M13.3588 5.32307C13.5471 5.13478 13.5471 4.82951 13.3588 4.64122C13.1705 4.45293 12.8652 4.45293 12.6769 4.64122L8.74119 8.57696L8.12828 7.96404L8.12661 7.9624C8.09372 7.92999 8.06761 7.89137 8.04978 7.84878C8.03196 7.80619 8.02278 7.76048 8.02278 7.71431C8.02278 7.66814 8.03196 7.62243 8.04978 7.57984C8.06761 7.53725 8.09375 7.49866 8.12664 7.46626L8.13024 7.46259C8.31357 7.27604 8.4163 7.02496 8.4163 6.76341C8.4163 6.50187 8.31358 6.25078 8.13026 6.06424L6.9278 4.86179L6.92523 4.85925C6.73771 4.67588 6.48577 4.57322 6.22349 4.57322C5.9612 4.57322 5.70933 4.67588 5.52174 4.85925L5.24062 5.14671C4.85966 5.52355 4.61981 6.01986 4.56118 6.55254C4.50249 7.0862 4.62926 7.62385 4.92029 8.07499L4.92446 8.08118C5.50072 8.93043 6.14499 9.72863 6.84976 10.4684L4.64122 12.677C4.45293 12.8653 4.45293 13.1705 4.64122 13.3588C4.82951 13.5471 5.13474 13.5471 5.32304 13.3588L13.3588 5.32307ZM9.98846 9.82423L8.12763 11.685L8.17342 11.7275C8.17625 11.73 8.17912 11.7326 8.18204 11.7351C8.73185 12.2084 9.30989 12.6502 9.91359 13.0575L9.91916 13.0611C10.3703 13.3522 10.9079 13.479 11.4416 13.4203C11.9743 13.3617 12.4706 13.1218 12.8474 12.7409L13.1298 12.4649L13.1349 12.4597C13.3182 12.2722 13.4209 12.0203 13.4209 11.758C13.4209 11.4956 13.3183 11.2438 13.1349 11.0562L11.9243 9.85833L11.9236 9.85755C11.737 9.67422 11.4859 9.5715 11.2244 9.5715C10.963 9.5715 10.712 9.67411 10.5255 9.85725C10.4581 9.923 10.3677 9.95981 10.2735 9.95981C10.1797 9.95981 10.0896 9.92329 10.0223 9.85802L9.98846 9.82423Z" fill="white"/>
</svg>
