<svg width="12" height="14" viewBox="0 0 12 14" fill="none" xmlns="http://www.w3.org/2000/svg">
<path d="M9.25948 4.67778C9.25948 3.83498 8.91609 3.0267 8.30486 2.43075C7.69363 1.8348 6.86463 1.5 6.00022 1.5C5.13581 1.5 4.3068 1.8348 3.69557 2.43075C3.08434 3.0267 2.74096 3.83498 2.74096 4.67778C2.74096 8.38519 1.11133 10.0556 1.11133 10.0556H10.8891C10.8891 10.0556 9.25948 8.38519 9.25948 4.67778Z" stroke="#02AFBF" stroke-width="1.2" stroke-linecap="round" stroke-linejoin="round"/>
<path d="M7.22228 11.8889C7.09807 12.0748 6.91979 12.2291 6.70529 12.3363C6.49079 12.4436 6.24759 12.5 6.00005 12.5C5.75252 12.5 5.50932 12.4436 5.29482 12.3363C5.08032 12.2291 4.90204 12.0748 4.77783 11.8889" stroke="#02AFBF" stroke-width="1.2" stroke-linecap="round" stroke-linejoin="round"/>
<path d="M9.67773 1.5083C10.5206 2.14344 10.8889 2.98603 10.994 3.95401" stroke="#02AFBF" stroke-width="1.2" stroke-linecap="round" stroke-linejoin="round"/>
<path d="M2.32258 1.5083C1.47973 2.14344 1.1114 2.98603 1.00635 3.95401" stroke="#02AFBF" stroke-width="1.2" stroke-linecap="round" stroke-linejoin="round"/>
</svg>
