<svg width="12" height="12" viewBox="0 0 12 12" fill="none" xmlns="http://www.w3.org/2000/svg">
<path d="M2.2876 10.05C2.54701 9.75945 3.76194 8.42248 4.11798 8.42248H7.88245C8.39838 8.42248 9.45158 9.53073 9.7126 9.92139M11.4001 5.99998C11.4001 8.98231 8.98244 11.4 6.0001 11.4C3.01776 11.4 0.600098 8.98231 0.600098 5.99998C0.600098 3.01764 3.01776 0.599976 6.0001 0.599976C8.98244 0.599976 11.4001 3.01764 11.4001 5.99998ZM7.93444 4.15945C7.93444 3.12923 7.06474 2.28748 6.00026 2.28748C4.9358 2.28748 4.06608 3.12923 4.06608 4.15945C4.06608 5.18968 4.9358 6.03143 6.00026 6.03143C7.06472 6.03143 7.93444 5.18968 7.93444 4.15945Z" stroke="#02AFBF" stroke-width="1.2"/>
</svg>
