<svg width="14" height="14" viewBox="0 0 14 14" fill="none" xmlns="http://www.w3.org/2000/svg">
<path fill-rule="evenodd" clip-rule="evenodd" d="M8.02441 2.30451C7.76315 1.23199 6.23685 1.23199 5.97559 2.30451C5.93659 2.46567 5.86008 2.61535 5.7523 2.74136C5.64452 2.86737 5.50851 2.96616 5.35534 3.02968C5.20217 3.09319 5.03617 3.11965 4.87084 3.1069C4.70551 3.09414 4.54553 3.04253 4.40392 2.95627C3.46064 2.38151 2.38123 3.4609 2.956 4.40417C3.32726 5.0133 2.99794 5.80806 2.30492 5.9765C1.23169 6.23707 1.23169 7.76403 2.30492 8.02391C2.46612 8.06297 2.61583 8.13954 2.74184 8.2474C2.86786 8.35526 2.96661 8.49136 3.03007 8.64461C3.09353 8.79786 3.1199 8.96393 3.10703 9.1293C3.09415 9.29467 3.04241 9.45466 2.956 9.59625C2.38123 10.5395 3.46064 11.6189 4.40392 11.0441C4.54551 10.9577 4.7055 10.906 4.87087 10.8931C5.03624 10.8802 5.20232 10.9066 5.35557 10.9701C5.50883 11.0335 5.64492 11.1323 5.75279 11.2583C5.86065 11.3843 5.93723 11.534 5.97628 11.6952C6.23685 12.7684 7.76384 12.7684 8.02372 11.6952C8.06291 11.5341 8.13956 11.3845 8.24744 11.2586C8.35533 11.1326 8.49141 11.034 8.64461 10.9705C8.79782 10.9071 8.96383 10.8807 9.12916 10.8935C9.29448 10.9063 9.45446 10.9579 9.59608 11.0441C10.5394 11.6189 11.6188 10.5395 11.044 9.59625C10.9577 9.45463 10.9061 9.29466 10.8933 9.12933C10.8805 8.96401 10.9069 8.798 10.9704 8.64479C11.0338 8.49159 11.1325 8.35552 11.2584 8.24763C11.3844 8.13975 11.534 8.0631 11.6951 8.02391C12.7683 7.76335 12.7683 6.23638 11.6951 5.9765C11.5339 5.93745 11.3842 5.86087 11.2582 5.75301C11.1321 5.64515 11.0334 5.50906 10.9699 5.35581C10.9065 5.20255 10.8801 5.03648 10.893 4.87111C10.9058 4.70574 10.9576 4.54575 11.044 4.40417C11.6188 3.4609 10.5394 2.38151 9.59608 2.95627C9.45449 3.04268 9.2945 3.09442 9.12913 3.10729C8.96375 3.12017 8.79768 3.0938 8.64443 3.03034C8.49118 2.96688 8.35508 2.86813 8.24721 2.74212C8.13935 2.61611 8.06277 2.4664 8.02372 2.3052L8.02441 2.30451Z" stroke="#02AFBF" stroke-width="1.2"/>
<path d="M8.22222 7.00012C8.22222 7.67514 7.67501 8.22234 7 8.22234C6.32499 8.22234 5.77778 7.67514 5.77778 7.00012C5.77778 6.32511 6.32499 5.7779 7 5.7779C7.67501 5.7779 8.22222 6.32511 8.22222 7.00012Z" stroke="#02AFBF" stroke-width="1.2"/>
</svg>
