<svg width="14" height="12" viewBox="0 0 14 12" fill="none" xmlns="http://www.w3.org/2000/svg">
<path d="M12.5 0.923096H7.84619" stroke="#02AFBF" stroke-width="1.2" stroke-linecap="round" stroke-linejoin="round"/>
<path d="M12.5 4.30774H7.84619" stroke="#02AFBF" stroke-width="1.2" stroke-linecap="round" stroke-linejoin="round"/>
<path d="M12.5 11.0769H7.84619" stroke="#02AFBF" stroke-width="1.2" stroke-linecap="round" stroke-linejoin="round"/>
<path d="M12.5 7.69238H7.84619" stroke="#02AFBF" stroke-width="1.2" stroke-linecap="round" stroke-linejoin="round"/>
<path d="M1.5 1.34617V4.73079C1.5 4.96444 1.68942 5.15386 1.92308 5.15386H5.30769C5.54135 5.15386 5.73077 4.96444 5.73077 4.73079V1.34617C5.73077 1.11252 5.54135 0.923096 5.30769 0.923096H1.92308C1.68942 0.923096 1.5 1.11252 1.5 1.34617Z" stroke="#02AFBF" stroke-width="1.2" stroke-linecap="round" stroke-linejoin="round"/>
<path d="M1.5 7.26927V10.6539C1.5 10.8875 1.68942 11.077 1.92308 11.077H5.30769C5.54135 11.077 5.73077 10.8875 5.73077 10.6539V7.26927C5.73077 7.03561 5.54135 6.84619 5.30769 6.84619H1.92308C1.68942 6.84619 1.5 7.03561 1.5 7.26927Z" stroke="#02AFBF" stroke-width="1.2" stroke-linecap="round" stroke-linejoin="round"/>
</svg>
