<svg width="12" height="12" viewBox="0 0 12 12" fill="none" xmlns="http://www.w3.org/2000/svg">
<path d="M1.07813 4.71221H3.36298M1.07813 4.71221L3.33103 4.71281C3.34174 4.71281 3.35239 4.71261 3.36298 4.71221M1.07813 4.71221L1.07813 2.5875C1.07813 2.29755 1.37194 2.0625 1.73438 2.0625H3.33125C3.69369 2.0625 3.9875 2.29755 3.9875 2.5875V4.18781C3.9875 4.46926 3.71067 4.69897 3.36298 4.71221M1.07813 4.71221L1.07813 7.36269M3.36298 4.71221L6.42438 4.71221C6.78681 4.71221 7.08063 4.94726 7.08063 5.23721V6.83769C7.08063 7.12764 6.78681 7.36269 6.42438 7.36269M1.07813 7.36269H6.42438M1.07813 7.36269L1.07812 9.4125C1.07812 9.70245 1.37194 9.9375 1.73438 9.9375L10.2656 9.9375C10.6281 9.9375 10.9219 9.70245 10.9219 9.4125V7.88769C10.9219 7.59774 10.6281 7.36269 10.2656 7.36269L6.42438 7.36269M1.07812 11.25V0.75" stroke="#02AFBF" stroke-width="1.2" stroke-linecap="round" stroke-linejoin="round"/>
</svg>
