<svg width="18" height="18" viewBox="0 0 18 18" fill="none" xmlns="http://www.w3.org/2000/svg">
<rect width="18" height="18" rx="9" fill="#A47C6E"/>
<path d="M10.2148 13.1475C10.6409 13.4224 11.1487 13.5422 11.6527 13.4867C12.1568 13.4313 12.6264 13.204 12.9825 12.8431L13.2939 12.5386C13.4304 12.399 13.5068 12.2115 13.5068 12.0162C13.5068 11.8209 13.4304 11.6334 13.2939 11.4938L11.9723 10.1861C11.8339 10.05 11.6475 9.97375 11.4534 9.97375C11.2592 9.97375 11.0729 10.05 10.9344 10.1861C10.7948 10.3226 10.6073 10.399 10.412 10.399C10.2168 10.399 10.0293 10.3226 9.88962 10.1861L7.81385 8.11029C7.7446 8.04205 7.68962 7.96072 7.65208 7.87104C7.61455 7.78136 7.59522 7.68511 7.59522 7.58789C7.59522 7.49067 7.61455 7.39442 7.65208 7.30473C7.68962 7.21505 7.7446 7.13373 7.81385 7.06548C7.94992 6.92703 8.02617 6.74067 8.02617 6.54654C8.02617 6.35242 7.94992 6.16605 7.81385 6.02759L6.49921 4.71294C6.35959 4.57643 6.17206 4.5 5.97676 4.5C5.78152 4.5 5.59399 4.57643 5.45437 4.71294L5.14997 5.02431C4.78902 5.38047 4.56172 5.85005 4.50624 6.35409C4.45083 6.85814 4.57057 7.3659 4.8455 7.79201C6.27783 9.90288 8.10027 11.7206 10.2148 13.1475Z" fill="white"/>
</svg>
