<svg width="18" height="18" viewBox="0 0 18 18" fill="none" xmlns="http://www.w3.org/2000/svg">
<rect width="18" height="18" rx="9" fill="#8B68A5"/>
<path fill-rule="evenodd" clip-rule="evenodd" d="M6.15916 4.26465C6.15916 3.94983 5.90395 3.69461 5.58912 3.69461C5.2743 3.69461 5.01908 3.94983 5.01908 4.26465V4.81994C5.01908 5.13477 5.2743 5.38998 5.58912 5.38998C5.90395 5.38998 6.15916 5.13477 6.15916 4.81994V4.26465ZM11.83 9.17504V7.27491H12.2101C12.462 7.27491 12.7037 7.37501 12.8819 7.55318C13.06 7.73135 13.1601 7.973 13.1601 8.22497C13.1601 8.47695 13.06 8.7186 12.8819 8.89677C12.7037 9.07494 12.462 9.17504 12.2101 9.17504H11.83ZM11.83 10.3151L12.2101 10.3151C12.7644 10.3151 13.296 10.0949 13.688 9.70293C14.08 9.31095 14.3002 8.77932 14.3002 8.22497C14.3002 7.67063 14.08 7.13899 13.688 6.74702C13.296 6.35504 12.7644 6.13483 12.2101 6.13483H10.69L10.6868 6.13484H4.98956C4.78798 6.13484 4.59465 6.21492 4.45212 6.35745C4.30958 6.49999 4.2295 6.69331 4.2295 6.89489V10.3151C4.2295 10.8191 4.4297 11.3023 4.78604 11.6587C5.14238 12.015 5.62569 12.2152 6.12964 12.2152H9.9299C10.4338 12.2152 10.9171 12.015 11.2735 11.6587C11.6298 11.3023 11.83 10.8191 11.83 10.3151ZM4.27023 13.1653C3.95541 13.1653 3.7002 13.4205 3.7002 13.7354C3.7002 14.0502 3.95541 14.3054 4.27023 14.3054H13.7302C14.045 14.3054 14.3002 14.0502 14.3002 13.7354C14.3002 13.4205 14.045 13.1653 13.7302 13.1653H4.27023ZM10.1311 3.69461C10.4459 3.69461 10.7012 3.94983 10.7012 4.26465V4.81994C10.7012 5.13477 10.4459 5.38998 10.1311 5.38998C9.81629 5.38998 9.56108 5.13477 9.56108 4.81994V4.26465C9.56108 3.94983 9.81629 3.69461 10.1311 3.69461ZM8.43016 4.26465C8.43016 3.94983 8.17494 3.69461 7.86012 3.69461C7.5453 3.69461 7.29008 3.94983 7.29008 4.26465V4.81994C7.29008 5.13477 7.5453 5.38998 7.86012 5.38998C8.17494 5.38998 8.43016 5.13477 8.43016 4.81994V4.26465Z" fill="white"/>
</svg>
