<svg width="28" height="29" viewBox="0 0 28 29" fill="none" xmlns="http://www.w3.org/2000/svg">
<rect y="0.5" width="28" height="28" rx="14" fill="#4199E0"/>
<path d="M16.25 7C17.4483 7 18.4278 7.93703 18.4962 9.1181L18.5 9.24994V11.4999C18.5 11.6951 18.424 11.8808 18.2903 12.0197L18.2188 12.085L15.2003 14.4994L18.2188 16.9138C18.3967 17.0561 18.5 17.2723 18.5 17.5001V19.7501C18.4998 20.9925 17.4926 22 16.25 22H11.75C10.5075 21.9999 9.50023 20.9924 9.5 19.7501V17.5001C9.5 17.2723 9.60333 17.0561 9.78125 16.9138L12.7997 14.4994L9.78125 12.085C9.62899 11.963 9.53111 11.7876 9.50628 11.5966L9.5 11.4999V9.24994C9.5 8.05171 10.437 7.0722 11.6182 7.00377L11.75 7H16.25ZM11.0004 17.8592V19.7501C11.0006 20.164 11.336 20.4995 11.75 20.4996H16.25L16.3379 20.4946C16.7108 20.4513 17.0006 20.1345 17.0008 19.7501V17.8605L14 15.4611L11.0004 17.8592ZM11.75 8.50038C11.3656 8.50051 11.049 8.78936 11.0054 9.16205L11.0004 9.24994V9.9995H17.0008V9.24994C17.0008 8.89491 16.7534 8.59694 16.422 8.51921L16.3379 8.5054L16.25 8.50038H11.75Z" fill="white"/>
</svg>
