<svg width="18" height="18" viewBox="0 0 18 18" fill="none" xmlns="http://www.w3.org/2000/svg">
<rect width="18" height="18" rx="9" fill="#FF947A"/>
<path d="M12.4107 14H4.97627C4.80693 14 4.6665 13.7972 4.6665 13.5526C4.6665 13.308 4.80693 13.1051 4.97627 13.1051H12.4107C12.58 13.1051 12.7204 13.308 12.7204 13.5526C12.7204 13.7972 12.58 14 12.4107 14Z" fill="white"/>
<path d="M12.6362 4.69837C11.7169 3.77909 10.8166 3.7554 9.87362 4.69837L9.30025 5.27173C9.25287 5.31912 9.23391 5.39493 9.25287 5.46127C9.613 6.71698 10.6176 7.72155 11.8733 8.08168C11.8922 8.08642 11.9112 8.09115 11.9301 8.09115C11.9823 8.09115 12.0296 8.0722 12.0676 8.03429L12.6362 7.46093C13.1053 6.99655 13.3327 6.54639 13.3327 6.0915C13.3375 5.62238 13.11 5.16748 12.6362 4.69837Z" fill="white"/>
<path d="M11.0206 8.51247C10.8832 8.44613 10.7505 8.37979 10.6225 8.30397C10.5183 8.24237 10.4188 8.17603 10.3193 8.10496C10.2387 8.05283 10.144 7.97702 10.0539 7.9012C10.0444 7.89646 10.0113 7.86803 9.97337 7.83012C9.81699 7.69744 9.64167 7.52686 9.4853 7.33731C9.47108 7.32784 9.44739 7.29467 9.41422 7.25202C9.36683 7.19516 9.28628 7.10039 9.2152 6.9914C9.15834 6.92032 9.092 6.81608 9.0304 6.71183C8.95458 6.58389 8.88824 6.45595 8.8219 6.32327C8.73492 6.13688 8.4903 6.08152 8.34486 6.22695L5.68026 8.89155C5.61866 8.95315 5.5618 9.07162 5.54758 9.15217L5.2917 10.967C5.24432 11.2892 5.33435 11.5925 5.53337 11.7963C5.70395 11.9621 5.94088 12.0521 6.19676 12.0521C6.25362 12.0521 6.31048 12.0474 6.36735 12.0379L8.18694 11.7821C8.27223 11.7678 8.3907 11.711 8.44756 11.6494L11.1166 8.98038C11.2591 8.83785 11.2055 8.59261 11.0206 8.51247Z" fill="white"/>
</svg>
