<svg width="29" height="28" viewBox="0 0 29 28" fill="none" xmlns="http://www.w3.org/2000/svg">
<rect x="0.666992" width="28" height="28" rx="14" fill="#4199E0"/>
<path d="M16.917 6.5C18.1153 6.5 19.0948 7.43703 19.1632 8.6181L19.167 8.74994V10.9999C19.167 11.1951 19.091 11.3808 18.9573 11.5197L18.8857 11.585L15.8673 13.9994L18.8857 16.4138C19.0637 16.5561 19.167 16.7723 19.167 17.0001V19.2501C19.1668 20.4925 18.1596 21.5 16.917 21.5H12.417C11.1745 21.4999 10.1672 20.4924 10.167 19.2501V17.0001C10.167 16.7723 10.2703 16.5561 10.4482 16.4138L13.4667 13.9994L10.4482 11.585C10.296 11.463 10.1981 11.2876 10.1733 11.0966L10.167 10.9999V8.74994C10.167 7.55171 11.104 6.5722 12.2852 6.50377L12.417 6.5H16.917ZM11.6674 17.3592V19.2501C11.6676 19.664 12.003 19.9995 12.417 19.9996H16.917L17.0049 19.9946C17.3778 19.9513 17.6676 19.6345 17.6678 19.2501V17.3605L14.667 14.9611L11.6674 17.3592ZM12.417 8.00038C12.0326 8.00051 11.716 8.28936 11.6724 8.66205L11.6674 8.74994V9.4995H17.6678V8.74994C17.6678 8.39491 17.4204 8.09694 17.089 8.01921L17.0049 8.0054L16.917 8.00038H12.417Z" fill="white"/>
</svg>
