<svg width="18" height="18" viewBox="0 0 18 18" fill="none" xmlns="http://www.w3.org/2000/svg">
<rect width="18" height="18" rx="9" fill="#4199E0"/>
<path d="M10.75 3.1665C11.682 3.1665 12.4438 3.89533 12.4971 4.81396L12.5 4.9165V6.6665C12.5 6.81835 12.4409 6.96282 12.3369 7.0708L12.2812 7.12158L9.93359 8.99951L12.2812 10.8774C12.4196 10.9881 12.5 11.1563 12.5 11.3335V13.0835C12.4998 14.0498 11.7164 14.8335 10.75 14.8335H7.25C6.2836 14.8334 5.50018 14.0498 5.5 13.0835V11.3335C5.5 11.1563 5.58037 10.9881 5.71875 10.8774L8.06641 8.99951L5.71875 7.12158C5.60032 7.02671 5.5242 6.89027 5.50488 6.7417L5.5 6.6665V4.9165C5.5 3.98452 6.22877 3.22266 7.14746 3.16943L7.25 3.1665H10.75ZM6.66699 11.6128V13.0835C6.66716 13.4054 6.92801 13.6664 7.25 13.6665H10.75L10.8184 13.6626C11.1084 13.6289 11.3338 13.3825 11.334 13.0835V11.6138L9 9.74756L6.66699 11.6128ZM7.25 4.3335C6.95104 4.3336 6.70475 4.55827 6.6709 4.84814L6.66699 4.9165V5.49951H11.334V4.9165C11.334 4.64036 11.1415 4.4086 10.8838 4.34814L10.8184 4.3374L10.75 4.3335H7.25Z" fill="white"/>
</svg>
